# xmcd CD database file generated by Grip 3.0.3
# 
# Track frame offsets:
#       150
#       12687
#       24375
#       35878
#       48477
#       58367
#       70726
#       86636
#       107050
#       122246
#       139249
# 
# Disc length: 2083 seconds
# 
# Revision: 3
# Processed by: cddbd v1.4PL0 Copyright (c) Steve Scherf et al.
# Submitted via: Grip 3.0.3
# 
DISCID=a508210b
DTITLE=Albert King - Born Under A Bad Sign
DYEAR=1967
DGENRE=Blues
TTITLE0=Born Under A Bad Sign
TTITLE1=Crosscut Saw
TTITLE2=Kansas City
TTITLE3=Oh, Pretty Woman
TTITLE4=Down Don't Bother Me
TTITLE5=The Hunter
TTITLE6=I Almost Lost My Mind
TTITLE7=Personal Manager
TTITLE8=Laundromat Blues
TTITLE9=As The Years Go Passing By
TTITLE10=The Very Thought Of You
EXTD=UDCD 577\n\nSubmitted 6/12/97\n[Jmccoy@efn.org]
EXTT0=
EXTT1=
EXTT2=
EXTT3=
EXTT4=
EXTT5=
EXTT6=
EXTT7=
EXTT8=
EXTT9=
EXTT10=
PLAYORDER=
